<?xml version="1.0" standalone="no"?>
<!DOCTYPE svg PUBLIC "-//W3C//DTD SVG 1.1//EN" "http://www.w3.org/Graphics/SVG/1.1/DTD/svg11.dtd" >
<svg xmlns="http://www.w3.org/2000/svg">
<metadata></metadata>
<defs>
<font id="aurabeshregular" horiz-adv-x="2088" >
<font-face units-per-em="2048" ascent="1638" descent="-410" />
<missing-glyph horiz-adv-x="1034" />
<glyph horiz-adv-x="0" />
<glyph unicode="&#xd;" horiz-adv-x="1034" />
<glyph unicode=" "  horiz-adv-x="1034" />
<glyph unicode="&#x09;" horiz-adv-x="1034" />
<glyph unicode="&#xa0;" horiz-adv-x="1034" />
<glyph unicode="!" horiz-adv-x="854" d="M195 795q207 223 503 526q4 -8 4 -66q0 -100 -12 -307q-14 0 -65 -49q-123 -119 -412 -459zM209 170q207 223 504 526q4 -8 4 -65q0 -100 -12 -307q-14 0 -68 -50q-123 -119 -410 -458z" />
<glyph unicode="&#x22;" d="M961 436v633h311v-633h-311zM1606 436v633h311v-633h-311z" />
<glyph unicode="#" d="M158 113v327h311v308h-311v327h1607v-327h-333v-308h333v-327h-1607zM797 442h317v308h-317v-308z" />
<glyph unicode="$" d="M156 -37h1286v631h315v-950h-1601v319zM156 274v951h1601v-320h-1278v-631h-323zM799 274v320h315v-320h-315z" />
<glyph unicode="%" d="M156 274v951h958v-631h649v-950h-964v630h-643zM479 594h320v311h-320v-311zM1110 -37h332v311h-332v-311z" />
<glyph unicode="&#x26;" d="M156 -356v950h643v631h315v-631h643v-320h-643v-630h-958zM479 -37h320v311h-320v-311z" />
<glyph unicode="'" d="M1432 594v635h333v-635h-333z" />
<glyph unicode="(" d="M156 -356v1581h1601v-635h-315v315h-959v-942h959v316h315v-635h-1601z" />
<glyph unicode=")" d="M152 279h327v-316h963v946h-963v-319h-323v635h1601v-1581h-1605v635z" />
<glyph unicode="*" d="M156 -37h643v-319h-643v319zM156 274v320h643v315h315v-315h643v-320h-643v-315h-315v315h-643zM156 905v320h643v-320h-643zM1118 -37h645v-319h-645v319zM1118 905v320h645v-320h-645z" />
<glyph unicode="+" d="M156 274v320h643v631h315v-631h643v-320h-643v-630h-315v630h-643z" />
<glyph unicode="," d="M156 -37h323v316h320v-635h-643v319z" />
<glyph unicode="-" d="M156 274v320h1601v-320h-1601z" />
<glyph unicode="." d="M156 -37h323v-319h-323v319z" />
<glyph unicode="/" horiz-adv-x="944" d="M195 -174q0 43 2 344v315l284 226l11 680l321 -2l-12 -703l-318 -237l9 -623h-297z" />
<glyph unicode="0" d="M156 -356v1581h1601v-1581h-1601zM479 -37h963v942h-963v-942zM799 274v320h315v-320h-315z" />
<glyph unicode="1" d="M156 -37h643v942h-643v320h958v-1262h643v-319h-1601v319z" />
<glyph unicode="2" d="M156 -37h1601v-319h-1601v319zM156 274v320h1286v311h-1286v320h1601v-951h-1601z" />
<glyph unicode="3" d="M156 -37h1286v942h-1286v320h1601v-1581h-1601v319zM156 274v320h958v-320h-958z" />
<glyph unicode="4" d="M156 274v951h323v-631h963v631h315v-1581h-315v630h-1286z" />
<glyph unicode="5" d="M156 -37h1286v311h-1286v320h1601v-950h-1601v319zM156 905v320h1601v-320h-1601z" />
<glyph unicode="6" d="M156 -356v950h1601v-950h-1601zM156 905v320h1601v-320h-1601zM479 -37h963v311h-963v-311z" />
<glyph unicode="7" d="M156 905v320h1601v-1581h-315v1261h-1286z" />
<glyph unicode="8" d="M156 -356v1581h1601v-1581h-1601zM479 -37h963v311h-963v-311zM479 594h963v311h-963v-311z" />
<glyph unicode="9" d="M156 -37h1601v-319h-1601v319zM156 274v951h1601v-951h-1601zM479 594h963v311h-963v-311z" />
<glyph unicode=":" d="M156 -35h323v-321h-323v321zM156 274v320h323v-320h-323z" />
<glyph unicode=";" d="M158 -37h643v-317h-643v317zM477 276v316h324v-316h-324z" />
<glyph unicode="&#x3c;" d="M156 274v320h643v631h958v-320h-643v-942h643v-319h-958v630h-643z" />
<glyph unicode="=" d="M156 -39v320h1601v-320h-1601zM156 590v319h1601v-319h-1601z" />
<glyph unicode="&#x3e;" d="M160 -37h643v942h-643v320h958v-631h645v-320h-645v-630h-958v319z" />
<glyph unicode="?" horiz-adv-x="1173" d="M137 594v950l252 4q14 0 152 -8q158 -10 217 -12q188 -272 264 -502q70 -209 70 -457q0 -201 -101 -467q-102 -276 -248 -450h-368q139 205 229 446q98 266 98 486q0 141 -51 348q-55 221 -112 272q-16 -10 -19 -96q2 12 2 -514q-66 -8 -188 -4q-207 4 -197 4z" />
<glyph unicode="@" d="M158 -37v1266h1603v-1573h-964v940h639v307h-967v-940h-311zM1120 -37h324v316h-324v-316z" />
<glyph unicode="A" horiz-adv-x="3129" d="M49 -334v727h1602l1409 -739q-111 0 -400 -2q-164 -3 -227 -3q-31 0 -37 1q-25 0 -396.5 182t-395.5 184h-1194v1q2 0 2 -351h-363zM49 754v749q129 -2 212 -2q125 0 149 4q16 -125 16 -372l1120 -7q29 0 760 377h768l-1438 -749h-1587z" />
<glyph unicode="B" horiz-adv-x="2963" d="M72 254h467l186 -227h1542l184 227h469q-109 -111 -596 -614l-1732 12q-35 55 -96 133q-152 190 -424 469zM72 846q59 70 553 612h1779q35 0 516 -610q-20 -6 -77 -6h-31l-358 2q-143 156 -187 246l-1540 -17q-141 -203 -192 -244h1q0 1 -214 13q-126 6 -192 6 q-40 0 -58 -2zM903 362v379h1182v-379h-1182z" />
<glyph unicode="C" horiz-adv-x="1763" d="M113 295v1235q53 -4 115 -4q41 0 87 2q86 3 129 3q22 0 33 -1v-1235h-364zM711 301v619h370v-619h-370zM1319 -319v1239h360q7 -46 7 -127.5t-7 -198.5v-913h-360z" />
<glyph unicode="D" horiz-adv-x="2396" d="M102 1143l297 383h1956l-1526 -1845h-477l584 729h-700q45 74 135 190q72 94 145 188h731q55 53 289 330q4 23 -29 25h-1405z" />
<glyph unicode="E" horiz-adv-x="2871" d="M53 1540h410l680 -1393q92 145 710 1393l957 16v-380l-244 -2v-1496h-387v1469q-14 10 -57 10q-143 -270 -271 -516q-307 -592 -483 -967h-422z" />
<glyph unicode="F" horiz-adv-x="2848" d="M90 -315v1247q102 6 803 35q205 8 346 49v457h367v-388q8 -8 15 -16t30 -8q139 0 635 203q276 113 485 209q0 -12 3 -175.5t3 -181.5q-250 -104 -500 -207q-524 -213 -671 -243v-609h1151q6 -39 6 -127v-47l-6 -199v1h-2667zM469 68h780v559l-778 -58q0 -197 4 -417v-28 q0 -51 -6 -56z" />
<glyph unicode="G" horiz-adv-x="2834" d="M127 -305v1853h365v-1458h1077l581 1065h-911q-27 -51 -27 -115h-362v508h1943q-518 -987 -1011 -1853h-1655z" />
<glyph unicode="H" horiz-adv-x="3043" d="M74 76h2887v-377h-2887q6 5 6 47v23q-6 172 -6 307zM90 1145v389h2884l4 -354q-10 -16 -21 -33zM563 616q6 190 6 193h1909v-375h-1909q-6 56 -6 139v43z" />
<glyph unicode="I" horiz-adv-x="1181" d="M59 942q162 182 324 365q205 225 253 225h1h467v-1894h-383v1425l-369 -381q-45 37 -146.5 130t-146.5 130z" />
<glyph unicode="J" horiz-adv-x="2820" d="M92 63h1526l297 607q-240 -70 -479 -138q-381 -104 -637 -104h-703v387h404q166 0 573 88q377 80 486 125q311 129 514 270q117 80 225 191q72 74 102 74h379l-913 -1897h-1774v397z" />
<glyph unicode="K" horiz-adv-x="2932" d="M76 74h2384v1079l-21 12h-2363v412h2586h4q40 0 99 -33q69 -40 69 -98v-8l15 -1291q0 -4 2 -46t2 -76q0 -344 -131 -344h-2646v393z" />
<glyph unicode="L" horiz-adv-x="1873" d="M59 516q61 117 199 336l1147 -743v1468h381v-1882h-490z" />
<glyph unicode="M" horiz-adv-x="1888" d="M104 -317q336 629 998 1880q186 2 373 2q262 -8 260 -111v-407h-410q-6 14 -25 43l-544 -1010l1061 -8l-189 -389h-1524z" />
<glyph unicode="N" horiz-adv-x="2983" d="M121 578q0 475 338 944l372 -19q-188 -268 -262 -510q-57 -186 -57 -401q0 -203 27 -313q35 -147 139 -297q367 643 854 1538h414l991 -1842h-402l-796 1407l-781 -1407h-499q-143 172 -240.5 435.5t-97.5 464.5z" />
<glyph unicode="O" horiz-adv-x="2727" d="M117 59q0 23 270 653.5t363 817.5q215 4 1294 4q150 -285 401 -885q232 -555 232 -590q0 -20 -86 -149q-145 -221 -152 -232h-2068q-254 338 -254 381zM543 76h1708l-441 1065h-813z" />
<glyph unicode="P" horiz-adv-x="2011" d="M143 426q0 696 398 1047l432 2q240 0 237 -86v-336h-415q0 119 -11 153q-113 -156 -181 -368.5t-68 -403.5q0 -305 96 -385h907v1428q93 12 185.5 11.5t185.5 -11.5v-1813h-1487q-129 172 -204 377t-75 385z" />
<glyph unicode="Q" horiz-adv-x="2637" d="M90 -205v1563q0 74 39 139q47 82 129 82h1856q186 0 245 -10q201 -27 199 -131v-645q-51 -2 -126 -2q-112 0 -278 4v374h-1658v-1116h1310q-37 -53 -252 -223q-227 -180 -284 -180h-1026q-51 0 -102.5 49t-51.5 96z" />
<glyph unicode="R" horiz-adv-x="2428" d="M96 1174l293 389h1985l-1532 -1880h-486l1188 1480z" />
<glyph unicode="S" horiz-adv-x="2895" d="M76 205q0 31 137 350l1434 -524q-39 -115 -127 -344zM446 1546h484l1480 -1452q6 23 11 129v1317h381v-1874h-152q-100 -2 -119 -2q-31 0 -258 21q-410 367 -948 933q-440 463 -879 928z" />
<glyph unicode="T" horiz-adv-x="2975" d="M104 618h510q225 -227 693 -675v1605h391v-1591q170 100 737 659h200.5h266.5q-408 -373 -877 -929q-14 0 -503.5 -7.5t-509.5 -7.5q-199 215 -363 389q-391 418 -545 557z" />
<glyph unicode="U" horiz-adv-x="2772" d="M164 -180v1730q6 -6 45 -6h22q162 4 304 4v-1458h1789v1079q-45 -6 -616 -6l-315 -366q-358 0 -426 12q190 246 573 739h1165v-1689q0 -41 -30 -99q-34 -67 -79 -67h-1h-2308q-37 0 -81 48t-42 79z" />
<glyph unicode="V" horiz-adv-x="2240" d="M106 1561h431h1q81 0 607 -576l581 563q103 6 202 6q141 0 272 -12q-238 -283 -846 -946l-21 -958h-375l-8 944q-190 207 -344 381q-371 416 -500 598z" />
<glyph unicode="W" horiz-adv-x="3033" d="M119 -209l16 1616q27 141 144 141h2537q84 0 121 -108q22 -67 22 -137l-14 -1094l-12 -320q-16 -239 -116 -239h-1h-2523q-63 0 -116.5 41t-57.5 100zM522 55h2024v1098h-2024v-1098z" />
<glyph unicode="X" horiz-adv-x="2543" d="M180 -135l944 1691h426l932 -1667l-344 -225l-1610 17zM748 84h1165l-559 1075z" />
<glyph unicode="Y" horiz-adv-x="2904" d="M106 1432l144 131h876l439 -781h-432q-70 104 -172 279q-141 240 -175 293l-190 4l827 -1467l990 1670h432l-1102 -1909h-639z" />
<glyph unicode="Z" horiz-adv-x="2572" d="M78 250h491v-180h1538v725h-923q-354 -319 -369 -320q0 2 2 4q-403 0 -530 21q227 217 456 436q283 266 306 264h1060v375h373v-1909h-2292q-53 0 -88 92q-26 71 -26 137q0 34 2 355z" />
<glyph unicode="[" d="M158 -358v1587h1607v-635h-333v307h-963v-932h647v-327h-958z" />
<glyph unicode="\" d="M158 276v953h311v-625h1296v-962h-333v634h-1274z" />
<glyph unicode="]" d="M150 594v635h1605v-1587h-958v327h647v932h-963v-307h-331z" />
<glyph unicode="^" d="M158 276v328h647v625h960v-328h-649v-297h649v-328h-649v-307h649v-327h-960v634h-647z" />
<glyph unicode="_" d="M158 -31h1607v-327h-1607v327z" />
<glyph unicode="`" d="M158 911v318h626v-635h-315v317h-311z" />
<glyph unicode="a" horiz-adv-x="2312" d="M98 -61v510h1121l987 -519q-78 0 -281 -2q-86 -1 -132 -1t-52 1q-16 0 -277.5 128t-277.5 128h-836v1v-246h-252zM98 700v525q75 -1 128 -1q106 0 124 3q10 -88 10 -260l785 -4q20 0 532 262h539l-1008 -525h-1110z" />
<glyph unicode="b" horiz-adv-x="2138" d="M84 342h328l129 -160h1079l129 160h328q-76 -78 -416 -430l-1215 8q-23 39 -67 94q-106 133 -295 328zM84 758q41 47 385 428h1247q25 0 361 -428q-8 -2 -328 -2q-100 109 -129 172l-1079 -13q-96 -141 -133 -170q8 0 -150 9q-94 5 -140 5q-23 0 -34 -1zM666 418v266h827 v-266h-827z" />
<glyph unicode="c" horiz-adv-x="1210" d="M47 387v866h256v-866h-256zM467 393v432h258v-432h-258zM893 -43v868h252q4 -33 4 -90t-4 -137v-641h-252z" />
<glyph unicode="d" horiz-adv-x="1695" d="M59 981l207 268h1368l-1067 -1292h-334l410 510h-491q10 16 196 266h512q39 37 203 232q2 14 -21 16h-983z" />
<glyph unicode="e" horiz-adv-x="2052" d="M57 1264h289l475 -975q66 100 498 975l670 10v-266l-172 -2v-1045h-271v1026q-10 8 -39 8q-35 0 -211 -362q-158 -338 -317 -676h-295z" />
<glyph unicode="f" horiz-adv-x="2424" d="M494 -47v872q72 4 561 25q143 6 243 35v319h256v-270q18 -18 31 -19q98 0 445 142q195 80 340 147q0 -8 2 -122t2 -128q-174 -72 -349 -145q-367 -147 -471 -170v-426h805q5 -26 5 -81q0 -18 -1 -40l-4 -140v1h-1865zM760 221h545v391l-545 -41q0 -137 4 -290 q0 -55 -4 -60z" />
<glyph unicode="g" horiz-adv-x="2422" d="M526 -27v1297h256v-1020h754l408 745h-637q-20 -37 -21 -80h-252v355h1358q-360 -690 -706 -1297h-1160z" />
<glyph unicode="h" horiz-adv-x="2195" d="M94 -25q6 4 6 48q-4 121 -4 215h2020v-263h-2022zM106 987v273h2020l2 -250q-6 -10 -14 -23h-2008zM438 616q4 133 4 136h1336v-263h-1336q-4 37 -4 90v37z" />
<glyph unicode="i" horiz-adv-x="903" d="M80 836q115 127 227 254q145 160 178 159h326v-1327h-268v998l-258 -267q-31 25 -101.5 90.5t-103.5 92.5z" />
<glyph unicode="j" horiz-adv-x="2021" d="M74 -49v278h1069l207 424q-168 -49 -334 -96q-268 -74 -449 -74h-491v271h282q117 2 404 63q262 55 340 88q215 88 358 189q82 55 158 133q51 51 72 51h266l-641 -1327h-1241z" />
<glyph unicode="k" horiz-adv-x="2082" d="M82 -35v275h1669v755l-16 9h-1653v288h1810h5q28 0 67 -22q51 -31 49 -74l10 -905q0 -156 -2 -178q-16 -147 -88 -148h-1851z" />
<glyph unicode="l" horiz-adv-x="1320" d="M49 553q45 80 139 233l803 -520v1028h266v-1317h-342z" />
<glyph unicode="m" horiz-adv-x="1318" d="M66 -37q236 440 698 1317q59 0 143 3t111 3q86 0 123 -16q45 -16 65 -66v-284h-286q-4 10 -19 30l-381 -706l744 -8l-131 -273h-1067z" />
<glyph unicode="n" horiz-adv-x="2080" d="M55 584q0 334 238 661l260 -14q-223 -319 -223 -637q0 -141 18 -219q25 -102 98 -207q258 449 598 1075h291l693 -1288h-281l-557 985l-547 -985h-350q-100 119 -169 303t-69 326z" />
<glyph unicode="o" horiz-adv-x="1892" d="M47 223q0 16 189.5 457.5t252.5 572.5q152 4 908 4q104 -201 280 -620q162 -389 162 -414q0 -14 -59 -104q-102 -156 -107 -162h-1448q-178 236 -178 266zM346 236h1196l-309 743h-569z" />
<glyph unicode="p" horiz-adv-x="1359" d="M53 469q0 487 277 733h305h115q23 -4 51 -59v-236h-291q0 84 -8 109q-78 -111 -127 -259.5t-49 -281.5q0 -213 67 -268h637v999h258v-1269h-1040q-195 258 -195 532z" />
<glyph unicode="q" horiz-adv-x="1855" d="M76 41v1094q0 51 26 96q33 57 91 57h1298q131 0 172 -4q141 -20 139 -94v-451q-44 -1 -114.5 -1t-167.5 1v265h-1162v-781h918q-27 -39 -176 -157q-160 -125 -199 -125h-719q-35 0 -70.5 33.5t-35.5 66.5z" />
<glyph unicode="r" horiz-adv-x="1693" d="M57 1008l205 272h1389l-1071 -1317h-340l831 1038z" />
<glyph unicode="s" horiz-adv-x="2025" d="M45 326q0 20 96 243l1004 -366q-27 -80 -88 -240zM305 1264h340l1034 -1016q6 14 9 90v922h266v-1311q-35 0 -105 -2h-84q-23 0 -182 14q-285 256 -661 653q-309 326 -617 650z" />
<glyph unicode="t" horiz-adv-x="2066" d="M57 616h359q158 -160 485 -473v1123h275v-1112q117 70 514 460h141h186q-285 -260 -614 -651q-10 0 -352 -5t-357 -5q-231 254 -637 663z" />
<glyph unicode="u" horiz-adv-x="1878" d="M49 59v1213q6 -6 47 -4q113 2 213 2v-1020h1254v756l-437 -5l-217 -258h-157.5t-141.5 0l402 527h817v-1182q0 -29 -23 -70q-25 -47 -55 -47h-1616q-27 0 -57.5 34t-28.5 54z" />
<glyph unicode="v" horiz-adv-x="1562" d="M63 1272h322l406 -402l407 394l330 16l-592 -684l-14 -670h-263l-4 660q-135 145 -241 268q-260 291 -351 418z" />
<glyph unicode="w" horiz-adv-x="2136" d="M92 35l10 1130q18 98 101 99h1775q59 0 84 -76q17 -47 17 -96l-4 -996q-6 -55 -13 -108q-12 -53 -84 -54h-1765q-45 0 -82 29t-39 72zM373 219h1417v768h-1417v-768z" />
<glyph unicode="x" horiz-adv-x="1722" d="M70 88l661 1186h297l653 -1168l-241 -157l-1127 10zM467 242h815l-391 753z" />
<glyph unicode="y" horiz-adv-x="2002" d="M39 1186l100 90h615l307 -547h-303q-78 133 -242 399l-133 5l578 -1027l694 1168h301l-770 -1335h-449z" />
<glyph unicode="z" horiz-adv-x="1808" d="M59 117q0 23 2 245h345v-126h1075v507h-645q-133 -121 -199 -178q-49 -41 -57 -45v2q-283 0 -373 15q160 152 319 305q199 186 215 184h744v264h260v-1337h-1606q-37 0 -61 65q-18 51 -19 99z" />
<glyph unicode="{" d="M158 276v328h311v625h1307v-635h-344v307h-627v-932h960v-327h-1306v634h-301z" />
<glyph unicode="|" d="M784 -358v1587h332v-1587h-332z" />
<glyph unicode="}" d="M143 594v635h1305v-625h313v-328h-303v-634h-1304v327h958v932h-627v-307h-342z" />
<glyph unicode="~" d="M158 594v635h958v-328h316v328h344v-635h-971v307h-336v-307h-311z" />
<glyph unicode="&#xa1;" d="M158 -358v962h311v-962h-311zM158 901v328h311v-328h-311z" />
<glyph unicode="&#xa2;" d="M158 -358v1587h1607v-328h-1296v-932h1296v-327h-1607zM1116 276v328h326v-328h-326z" />
<glyph unicode="&#xa3;" d="M158 -31h647v307h-336v328h336v625h627v-328h-316v-297h316v-328h-326v-307h659v-327h-1607v327z" />
<glyph unicode="&#xa5;" d="M0 594v635h326v-318h938v318h335v-635h-647v-307h647v-328h-647v-317h-315v317h-627v328h627v307h-637z" />
<glyph unicode="&#xa7;" d="M158 -31h1274v307h-1274v943h657v-318h-346v-297h647v307h316v-307h333v-962h-1607v327z" />
<glyph unicode="&#xa8;" d="M158 901v328h311v-328h-311zM795 891v328h311v-328h-311z" />
<glyph unicode="&#xa9;" d="M158 901v328h1607v-1587h-333v1259h-1274zM469 -358v962h647v-328h-311v-307h311v-327h-647z" />
<glyph unicode="&#xab;" d="M147 276v328h322v623l336 2v-625h311v625h637v-328h-321v-932h344v-327h-670v634h-301v-624h-346v624h-312z" />
<glyph unicode="&#xac;" d="M158 276v328h1607v-962h-333v634h-1274z" />
<glyph unicode="&#xad;" d="M156 274v320h1601v-320h-1601z" />
<glyph unicode="&#xae;" d="M158 -358v1587h1607v-328h-1296v-1259h-311zM1116 287h326v-645h-326v645z" />
<glyph unicode="&#xb0;" horiz-adv-x="2181" d="M74 -319q324 543 725 1130h905v737h385v-1867h-373v735q-10 -8 -121 -6q-293 6 -594 6q-162 -256 -489 -735h-438z" />
<glyph unicode="&#xb1;" d="M158 -31h1607v-327h-1607v327zM158 594v317h647v318h311v-318h649v-317h-649v-318h-321v318h-637z" />
<glyph unicode="&#xb4;" d="M158 594v635h616v-328h-305v-307h-311z" />
<glyph unicode="&#xb6;" d="M158 276v953h1607v-328h-1296v-297h647v-962h-311v634h-647zM1432 -348v952h333v-952h-333z" />
<glyph unicode="&#xbb;" d="M145 -31h342v932h-321v328h637v-625h311v625l336 -2v-623h324v-328h-314v-624h-346v624h-301v-634h-668v327z" />
<glyph unicode="&#xbf;" d="M158 -358v1106h311v-779h1296v-327h-1607zM158 901v328h311v-328h-311z" />
<glyph unicode="&#xc6;" horiz-adv-x="2723" d="M74 -123q0 233 8 409.5t8 155.5q49 0 169 8.5t179 8.5q14 -45 15 -101q0 -27 -4.5 -74.5t-4.5 -68.5q0 -70 41 -100q51 -39 185 -39l1601 14v334h-1087v399h1085q25 154 0 346h-1800v-368h-379v651q-2 45 64 82q53 31 92 31h2279q45 0 93 -47.5t48 -92.5v-1607 q0 -25 -43 -75t-69 -50h-2368q-49 0 -84 88q-29 66 -28 96z" />
<glyph unicode="&#xc7;" horiz-adv-x="3033" d="M104 82l2229 18l-514 1059h-1692v391l1907 -2l913 -1839h-2843v373z" />
<glyph unicode="&#xc9;" horiz-adv-x="3041" d="M100 487v88q207 43 473 388q258 332 289 559l1305 -4q-8 0 102 -220q131 -256 275 -432q202 -248 405 -305q-23 -127 -74 -368h-59q-166 0 -393 227q-176 174 -352 440q-150 225 -164 293q-63 4 -172 2q-76 0 -181 -2q-96 -2 -100 -2q-14 0 -131 -8q-127 -8 -180 -10 q-27 -70 -160 -265q-180 -264 -360 -434q-244 -231 -449 -241q-23 66 -48.5 168t-25.5 126zM215 14v76h2619q-23 -135 -73 -369l-2454 -16q-92 158 -92 309z" />
<glyph unicode="&#xd8;" d="M158 -41v952h958v318h316v-318h333v-952h-960v-317h-336v317h-311zM469 287h963v307h-963v-307z" />
<glyph unicode="&#xdf;" horiz-adv-x="3471" d="M84 186h371v-512h-371v512zM92 1042q-14 367 0 519l367 2q14 -29 20 -523zM709 182h381q-2 6 -3 -73q-2 -49 13.5 -49.5t568.5 -3.5t572 -3l524 1071q0 35 -39 37h-1608q-31 -55 -28 -119h-371q0 -8 -4 254q-4 156 6 263h2670l-913 -1893h-1769v516z" />
<glyph unicode="&#xe6;" d="M158 -358v962h626v297h-626v328h1441v-328h-483v-297h483v-328h-483v-307h483v-327h-1441zM469 -31h315v307h-315v-307z" />
<glyph unicode="&#xf1;" horiz-adv-x="2471" d="M90 -317l694 1474q-244 -4 -366 8v381h1956v-1863h-369v1478h-748l-772 -1478h-395z" />
<glyph unicode="&#xf3;" horiz-adv-x="1898" d="M53 1425q86 143 572 144q100 0 188 -6q14 -111 0 -398h-367v-1083h365v-401h-639q-31 0 -75 53t-38 88zM1040 78h365v1073q-104 14 -365 0q0 164 4 268q4 72 9 113q4 35 4 31q127 -12 346 -15q180 -2 248 -14q102 -18 145 -80v-1591q0 -41 -33 -105q-41 -78 -96 -77h-627 v397z" />
<glyph unicode="&#xf7;" d="M168 276v328h1585v-328h-1585zM805 -31h311v-327h-311v327zM815 901v328h311v-328h-311z" />
<glyph unicode="&#xf8;" d="M158 -41v952h958v318h316v-318h333v-952h-970v-317h-326v317h-311zM469 287h963v307h-963v-307z" />
<glyph unicode="&#xff;" d="M301 -41v645h336v-317h627v317h335v-645h-483v-317h-332v317h-483zM313 901v328h314v-328h-314zM1274 901v328h315v-328h-315z" />
<glyph unicode="&#x152;" d="M158 -358v1587h1618v-328h-660v-297h649v-328h-649v-317h649v-317h-1607zM469 -41h336v942h-336v-942z" />
<glyph unicode="&#x153;" d="M158 -358v1587h1618v-328h-660v-297h649v-328h-649v-317h649v-317h-1607zM469 -41h336v942h-336v-942z" />
<glyph unicode="&#x2000;" horiz-adv-x="789" />
<glyph unicode="&#x2001;" horiz-adv-x="1579" />
<glyph unicode="&#x2002;" horiz-adv-x="789" />
<glyph unicode="&#x2003;" horiz-adv-x="1579" />
<glyph unicode="&#x2004;" horiz-adv-x="526" />
<glyph unicode="&#x2005;" horiz-adv-x="394" />
<glyph unicode="&#x2006;" horiz-adv-x="263" />
<glyph unicode="&#x2007;" horiz-adv-x="263" />
<glyph unicode="&#x2008;" horiz-adv-x="197" />
<glyph unicode="&#x2009;" horiz-adv-x="315" />
<glyph unicode="&#x200a;" horiz-adv-x="87" />
<glyph unicode="&#x2010;" d="M156 274v320h1601v-320h-1601z" />
<glyph unicode="&#x2011;" d="M156 274v320h1601v-320h-1601z" />
<glyph unicode="&#x2012;" d="M156 274v320h1601v-320h-1601z" />
<glyph unicode="&#x2013;" d="M469 276v328h973v-328h-973z" />
<glyph unicode="&#x2014;" d="M168 276v328h1585v-328h-1585z" />
<glyph unicode="&#x2018;" d="M158 594v635h637v-328h-326v-307h-311z" />
<glyph unicode="&#x2019;" d="M152 586v327h321v308h315v-635h-636z" />
<glyph unicode="&#x201c;" d="M158 594v635h637v-328h-326v-307h-311zM1126 594v635h639v-328h-323v-307h-316z" />
<glyph unicode="&#x201d;" d="M154 586v327h321v308h316v-635h-637zM1122 586v327h326v308h313v-635h-639z" />
<glyph unicode="&#x2022;" d="M158 -41v952h311v318h963v-318h333v-942h-333v-327h-963v317h-311z" />
<glyph unicode="&#x2026;" d="M168 -31h311v-327h-311v327zM805 -31h311v-327h-311v327zM1442 -31h311v-327h-311v327z" />
<glyph unicode="&#x202f;" horiz-adv-x="315" />
<glyph unicode="&#x205f;" horiz-adv-x="394" />
<glyph unicode="&#x2122;" d="M147 276v953h322v-318h1296v-635h-333v318h-316v-318h-311v318h-336v-318h-322z" />
<glyph unicode="&#x25fc;" horiz-adv-x="1269" d="M0 0v1270h1270v-1270h-1270z" />
</font>
</defs>
</svg>
